<svg height="512" viewBox="0 0 512 512" width="512" xmlns="http://www.w3.org/2000/svg"><g id="outline"><path d="m409.285 310.163a128.014 128.014 0 0 1 -132.556-215.369 8 8 0 0 0 -4.476-14.04c-5.453-.5-10.926-.754-16.253-.754-97.047 0-176 78.953-176 176s78.953 176 176 176a176.059 176.059 0 0 0 163.812-111.523 8 8 0 0 0 -10.527-10.314zm-62.221 77.412a159.043 159.043 0 0 1 -91.064 28.425c-88.225 0-160-71.775-160-160 0-87.1 69.961-158.175 156.644-159.965a143.848 143.848 0 0 0 -36.644 95.965c0 79.4 64.6 144 144 144a143.74 143.74 0 0 0 37.32-4.883 159.929 159.929 0 0 1 -50.256 56.458z"/><path d="m151.033 169.563a8 8 0 0 0 -11.187 1.686 143.065 143.065 0 0 0 -25.591 59.337 8 8 0 1 0 15.745 2.828 126.972 126.972 0 0 1 22.716-52.663 8 8 0 0 0 -1.683-11.188z"/><path d="m175.257 137.36a144.009 144.009 0 0 0 -12.412 9.36 8 8 0 1 0 10.31 12.234 127.818 127.818 0 0 1 11.028-8.314 8 8 0 0 0 -8.926-13.28z"/><circle cx="176" cy="352" r="9"/><circle cx="176" cy="320" r="8"/><circle cx="136" cy="304" r="8"/><circle cx="264" cy="392" r="8"/><circle cx="232" cy="368" r="8"/><circle cx="302.5" cy="377.5" r="9.5"/><path d="m439.608 154.689a8 8 0 0 0 -6.583-5.46l-29.691-3.836-12.823-27.053a8 8 0 0 0 -14.457 0l-12.824 27.053-29.691 3.836a8 8 0 0 0 -4.468 13.75l21.766 20.555-5.526 29.423a8 8 0 0 0 11.7 8.5l26.275-14.348 26.276 14.348a8 8 0 0 0 11.7-8.5l-5.526-29.423 21.765-20.555a8 8 0 0 0 2.107-8.29zm-38.043 20.211a8 8 0 0 0 -2.369 7.293l3.218 17.13-15.3-8.353a8 8 0 0 0 -7.668 0l-15.3 8.353 3.218-17.13a8 8 0 0 0 -2.364-7.293l-12.672-11.967 17.286-2.234a8 8 0 0 0 6.2-4.507l7.466-15.749 7.466 15.749a8 8 0 0 0 6.2 4.507l17.286 2.234z"/><path d="m489.025 241.6-18.517-2.392-8-16.872a8 8 0 0 0 -14.458 0l-8 16.872-18.511 2.392a8 8 0 0 0 -4.468 13.75l13.575 12.819-3.447 18.35a8 8 0 0 0 11.7 8.5l16.386-8.948 16.387 8.948a8 8 0 0 0 11.7-8.5l-3.446-18.35 13.574-12.819a8 8 0 0 0 -4.468-13.75zm-23.268 17.94a8 8 0 0 0 -2.369 7.293l1.137 6.058-5.409-2.954a8 8 0 0 0 -7.668 0l-5.409 2.954 1.138-6.058a8 8 0 0 0 -2.369-7.293l-4.481-4.23 6.111-.79a8 8 0 0 0 6.2-4.507l2.64-5.57 2.639 5.57a8 8 0 0 0 6.2 4.507l6.112.79z"/></g></svg>